<svg viewBox="0 0 32 32" xmlns="http://www.w3.org/2000/svg" fill-rule="evenodd" clip-rule="evenodd" stroke-linejoin="round" stroke-miterlimit="1.414"><clipPath id="a"><path d="M15.534 8.411c0 .102-.102.102-.102.102h-.102c-.102 0-.102-.102-.204-.204 0 0-.102-.102-.102-.204s0-.102.102-.102l.204.102c.102.102.204.204.204.306zm-1.836-1.02c0-.51-.204-.816-.51-.816 0 0 0 .102-.102.102v.204h.306c0 .204.102.306.102.51h.204zm3.57-.51c.204 0 .306.204.408.51h.204c-.102-.102-.102-.204-.102-.306 0-.102 0-.204-.102-.306-.102-.102-.204-.204-.306-.204 0 0-.102.102-.204.102 0 .102.102.102.102.204zm-3.06 1.632c-.102 0-.102 0-.102-.102s0-.204.102-.306a.448.448 0 00.306-.102c.102 0 .102.102.102.102 0 .102-.102.204-.306.408h-.102zm-1.122-.102c-.408-.204-.51-.51-.51-1.02 0-.306 0-.51.204-.714a.56.56 0 01.51-.306c.204 0 .306.102.51.306.102.306.204.612.204.918v.204h.102v-.102c.102 0 .102-.204.102-.612 0-.306 0-.612-.204-.918-.204-.306-.408-.51-.816-.51a.768.768 0 00-.714.51c-.204.408-.245.714-.245 1.224 0 .408.143.816.551 1.224.102-.102.204-.102.306-.204zm12.748 14.38c.102 0 .102-.041.102-.133 0-.224-.102-.489-.408-.785-.306-.306-.816-.5-1.428-.581-.102-.01-.204-.01-.204-.01-.102-.02-.102-.02-.204-.02a5.543 5.543 0 01-.408-.051 8.106 8.106 0 00.408-2.519c0-1.02-.204-1.734-.612-2.346-.408-.612-.816-.918-1.326-1.02-.102.102-.102.102-.102.204.51.204 1.02.612 1.326 1.224.306.714.408 1.326.408 2.04 0 .571-.102 1.418-.51 2.499-.408.163-.816.54-1.122 1.132 0 .092 0 .143.102.143 0 0 .102-.092.204-.265.204-.173.306-.347.51-.52.306-.173.51-.265.816-.265.51 0 1.02.071 1.326.214.408.133.612.275.714.439.102.153.204.296.306.428 0 .132.102.194.102.194v-.002zM16.452 8.003c-.102-.102-.102-.306-.102-.51 0-.408 0-.612.204-.918.204-.204.408-.306.612-.306.306 0 .51.204.714.408.102.306.204.51.204.816 0 .51-.204.816-.612.918 0 0 .102.102.204.102.204 0 .306.102.51.204.102-.612.204-1.02.204-1.53 0-.612-.102-1.02-.306-1.326-.306-.306-.612-.408-1.02-.408-.306 0-.612.102-.918.306-.204.306-.306.51-.306.816 0 .51.102.918.306 1.326.102 0 .204.102.306.102zm1.224 1.632c-1.326.918-2.346 1.326-3.162 1.326-.714 0-1.428-.306-2.04-.816.102.204.204.408.306.51l.612.612c.408.408.918.612 1.428.612.714 0 1.53-.408 2.55-1.122l.918-.612c.204-.204.408-.408.408-.714 0-.102 0-.204-.102-.204-.102-.204-.612-.51-1.632-.816-.918-.408-1.632-.612-2.04-.612-.306 0-.816.204-1.53.612-.612.408-1.02.816-1.02 1.224 0 0 .102.102.204.306.612.51 1.224.816 1.836.816.816 0 1.836-.408 3.162-1.428v.204c.102 0 .102.102.102.102zm2.345 20.601c.408.767 1.122 1.152 1.938 1.152.204 0 .408-.031.612-.092.204-.041.408-.112.51-.194.102-.071.204-.143.306-.224.204-.071.204-.122.306-.173l1.734-1.499c.408-.325.816-.61 1.326-.857.408-.245.816-.408 1.02-.5.306-.082.51-.204.714-.367.102-.153.204-.347.204-.592 0-.296-.204-.52-.408-.683a2.094 2.094 0 00-.612-.347c-.204-.072-.408-.235-.714-.51a2.753 2.753 0 01-.51-1.112l-.102-.591c-.102-.275-.102-.479-.204-.592 0-.031 0-.041-.102-.041s-.306.092-.408.265c-.204.173-.408.367-.612.571-.102.204-.408.387-.612.561-.306.173-.612.265-.816.265-.816 0-1.224-.224-1.53-.663-.204-.326-.306-.704-.408-1.132-.204-.173-.306-.265-.51-.265-.51 0-.714.53-.714 1.601v3.172c0 .092-.102.296-.102.612-.102.316-.102.675-.102 1.081l-.204 1.132v.022zm-14.788-.543c.948.139 2.04.435 3.274.888 1.234.449 1.989.683 2.264.683.714 0 1.306-.316 1.795-.927.102-.198.102-.43.102-.698 0-.964-.581-2.183-1.744-3.661l-.694-.928c-.143-.194-.316-.49-.54-.887a8.694 8.694 0 00-.561-.918c-.133-.235-.347-.469-.622-.704a2.09 2.09 0 00-.908-.469c-.428.082-.724.224-.867.418a1.252 1.252 0 00-.245.632c-.031.214-.092.357-.194.428-.102.061-.275.112-.51.163-.051 0-.143 0-.275.01h-.275c-.541 0-.908.061-1.101.163a1.496 1.496 0 00-.388.989c0 .163.041.439.122.826.082.377.122.683.122.897 0 .418-.122.836-.377 1.254-.255.439-.388.765-.388.997.102.396.775.674 2.009.837l.001.007zm3.396-9.273c0-.704.184-1.479.561-2.397.367-.918.734-1.53 1.091-1.938-.02-.102-.071-.102-.153-.102l-.102-.102c-.296.306-.653 1.02-1.081 2.04-.428.918-.653 1.764-.653 2.387 0 .459.112.857.316 1.203.224.337.765.826 1.622 1.448l1.081.704c1.152 1 1.764 1.693 1.764 2.101 0 .214-.102.428-.408.663-.204.245-.479.367-.714.367-.02 0-.031.02-.031.071 0 .01.102.214.316.612.428.581 1.346.867 2.57.867 2.244 0 3.977-.918 5.303-2.754 0-.51 0-.826-.102-.959v-.377c0-.663.102-1.163.306-1.489.204-.326.408-.479.714-.479.204 0 .408.071.612.224.102-.785.102-1.469.102-2.081 0-.928 0-1.693-.204-2.407a5.365 5.365 0 00-.51-1.53l-.612-.918c-.204-.306-.306-.612-.51-.918-.102-.408-.204-.714-.204-1.224-.306-.51-.51-1.02-.816-1.53-.204-.51-.408-1.02-.612-1.428l-.918.714c-1.02.714-1.836 1.02-2.55 1.02-.612 0-1.122-.102-1.428-.51l-.612-.51c0 .306-.102.714-.306 1.122l-.643 1.224c-.286.714-.438 1.122-.469 1.428-.041.204-.071.408-.092.408l-.765 1.53c-.826 1.53-1.244 2.947-1.244 4.12 0 .235.02.479.061.724-.459-.316-.683-.755-.683-1.326l.003.002zm7.303 9.648c-1.326 0-2.346.18-3.06.535v-.031c-.51.612-1.081.928-1.877.928-.5 0-1.285-.194-2.346-.581-1.071-.367-2.019-.649-2.845-.834a6.673 6.673 0 00-.561-.105 20.789 20.789 0 01-.785-.14 5.87 5.87 0 01-.724-.209 1.795 1.795 0 01-.612-.313.576.576 0 01-.21-.436c0-.163.035-.337.104-.523.065-.112.137-.224.208-.326.071-.112.133-.214.173-.316.061-.092.102-.184.143-.286.041-.092.082-.184.102-.296.02-.102.041-.204.041-.306 0-.102-.041-.408-.122-.948-.082-.53-.122-.867-.122-1.01 0-.449.102-.806.326-1.061.224-.255.439-.388.663-.388h1.173c.092 0 .235-.051.449-.173.071-.163.133-.296.173-.418.051-.122.071-.214.092-.255.02-.061.041-.122.061-.173.047-.083.101-.162.163-.235a.611.611 0 01-.122-.398c0-.112 0-.214.02-.275 0-.367.173-.887.54-1.571l.357-.643c.296-.551.52-.959.683-1.367.173-.408.357-1.02.561-1.836.163-.714.551-1.428 1.163-2.142l.765-.918c.53-.612.877-1.122 1.071-1.53.194-.408.296-.918.296-1.326 0-.204-.051-.816-.163-1.836a30.44 30.44 0 01-.153-2.958c0-.714.061-1.224.194-1.734s.367-1.02.714-1.428c.306-.408.714-.816 1.326-1.02.612-.204 1.326-.306 2.142-.306.306 0 .612 0 .918.102.306 0 .714.102 1.224.306.408.204.816.408 1.122.714.408.306.714.816 1.02 1.326.204.612.408 1.224.51 2.04.102.51.102 1.02.204 1.734 0 .612.102 1.02.102 1.326.102.306.102.714.204 1.224.102.408.204.816.408 1.122.204.408.408.816.714 1.224.306.51.714 1.02 1.122 1.632.918 1.02 1.632 2.142 2.04 3.263.51 1.02.816 2.346.816 3.763a6.946 6.946 0 01-.306 2.05c.204 0 .306.082.408.224.102.142.204.449.306.928l.102.755c.102.224.204.439.51.622.204.184.408.337.714.459.204.102.51.245.714.428.204.204.306.418.306.642 0 .347-.102.602-.306.785a1.6 1.6 0 01-.714.439c-.204.102-.612.306-1.224.594-.51.302-1.02.668-1.53 1.101l-1.02.868a5.7 5.7 0 01-1.122.857c-.306.184-.714.275-1.122.275l-.714-.082c-.816-.214-1.326-.622-1.632-1.244-1.632-.198-2.958-.296-3.774-.296l-.001.007z" clip-rule="nonzero"/></clipPath><g clip-path="url(#a)"><path fill="#fff" d="M0 0h32v32H0z"/></g></svg>