<?xml version="1.0" encoding="UTF-8" standalone="no"?><!DOCTYPE svg PUBLIC "-//W3C//DTD SVG 1.1//EN" "http://www.w3.org/Graphics/SVG/1.1/DTD/svg11.dtd"><svg width="100%" height="100%" viewBox="0 0 1136 815" version="1.1" xmlns="http://www.w3.org/2000/svg" xmlns:xlink="http://www.w3.org/1999/xlink" xml:space="preserve" xmlns:serif="http://www.serif.com/" style="fill-rule:evenodd;clip-rule:evenodd;stroke-linejoin:round;stroke-miterlimit:1.41421;"><circle cx="277.46" cy="683.31" r="13.8" style="fill:url(#_Linear1);"/><circle cx="277.46" cy="683.31" r="13.18" style="fill-opacity:0.2;"/><circle cx="203.11" cy="414.14" r="5.1" style="fill:#fff;"/><circle cx="567.11" cy="710.14" r="5.1" style="fill:#fff;"/><circle cx="352.11" cy="736.14" r="2.85" style="fill:#fff;"/><circle cx="983.11" cy="598.14" r="2.85" style="fill:#fff;"/><circle cx="820.11" cy="342.14" r="2.85" style="fill:#fff;"/><circle cx="1051.11" cy="467.14" r="2.85" style="fill:#fff;"/><circle cx="293.11" cy="247.14" r="5.1" style="fill:#fff;"/><path d="M152.94,592.21l-4.54,0l0,-4.54l-1.85,0l0,4.54l-4.54,0l0,1.85l4.54,0l0,4.53l1.85,0l0,-4.53l4.54,0l0,-1.85Z" style="fill:#fff;fill-rule:nonzero;"/><path d="M266.94,590.21l-4.54,0l0,-4.54l-1.85,0l0,4.54l-4.54,0l0,1.85l4.54,0l0,4.53l1.85,0l0,-4.53l4.54,0l0,-1.85Z" style="fill:#fff;fill-rule:nonzero;"/><path d="M429.94,682.21l-4.54,0l0,-4.54l-1.85,0l0,4.54l-4.54,0l0,1.85l4.54,0l0,4.53l1.85,0l0,-4.53l4.54,0l0,-1.85Z" style="fill:#fff;fill-rule:nonzero;"/><path d="M656.97,130.71l-2.07,0l0,-2.07l-0.84,0l0,2.07l-2.07,0l0,0.84l2.07,0l0,2.07l0.84,0l0,-2.07l2.07,0l0,-0.84Z" style="fill:#fff;fill-rule:nonzero;"/><path d="M951.97,320.71l-2.07,0l0,-2.07l-0.84,0l0,2.07l-2.07,0l0,0.84l2.07,0l0,2.07l0.84,0l0,-2.07l2.07,0l0,-0.84Z" style="fill:#fff;fill-rule:nonzero;"/><path d="M777.97,444.71l-2.07,0l0,-2.07l-0.84,0l0,2.07l-2.07,0l0,0.84l2.07,0l0,2.07l0.84,0l0,-2.07l2.07,0l0,-0.84Z" style="fill:#fff;fill-rule:nonzero;"/><path d="M69.97,522.71l-2.07,0l0,-2.07l-0.84,0l0,2.07l-2.07,0l0,0.84l2.07,0l0,2.07l0.84,0l0,-2.07l2.07,0l0,-0.84Z" style="fill:#fff;fill-rule:nonzero;"/><path d="M154.97,692.71l-2.07,0l0,-2.07l-0.84,0l0,2.07l-2.07,0l0,0.84l2.07,0l0,2.07l0.84,0l0,-2.07l2.07,0l0,-0.84Z" style="fill:#fff;fill-rule:nonzero;"/><path d="M421.97,155.71l-2.07,0l0,-2.07l-0.84,0l0,2.07l-2.07,0l0,0.84l2.07,0l0,2.07l0.84,0l0,-2.07l2.07,0l0,-0.84Z" style="fill:#fff;fill-rule:nonzero;"/><path d="M295.97,454.71l-2.07,0l0,-2.07l-0.84,0l0,2.07l-2.07,0l0,0.84l2.07,0l0,2.07l0.84,0l0,-2.07l2.07,0l0,-0.84Z" style="fill:#fff;fill-rule:nonzero;"/><path d="M322.97,368.71l-2.07,0l0,-2.07l-0.84,0l0,2.07l-2.07,0l0,0.84l2.07,0l0,2.07l0.84,0l0,-2.07l2.07,0l0,-0.84Z" style="fill:#fff;fill-rule:nonzero;"/><circle cx="748.15" cy="555.65" r="11.52" style="fill:url(#_Linear2);"/><circle cx="748.15" cy="555.65" r="10.67" style="fill-opacity:0.2;"/><circle cx="776.88" cy="630.76" r="11.93" style="fill-opacity:0.2;"/><path d="M669.97,307.03c0.082,-25.062 -5.924,-49.772 -17.5,-72c-5.49,-10.44 -10.5,-16.92 -14.36,-20.91c-3.016,-3.186 -7.757,-4.099 -11.74,-2.26c-1.557,0.552 -2.964,1.46 -4.11,2.65c-5.21,5.4 -9.92,12.54 -14,20.13c-12.172,22.758 -18.486,48.192 -18.37,74l0,15.48l-9.93,0l0,-180.01c0,-37.72 -8.44,-74.93 -25,-107.93c-7.84,-15.64 -15,-25.36 -20.49,-31.33c-2.695,-3.072 -6.589,-4.836 -10.675,-4.836c-4.086,0 -7.98,1.764 -10.675,4.836c-7.44,8.09 -14.16,18.79 -20,30.16c-17.39,33.72 -26.22,72 -26.22,110.82l0,178.22l-8.58,0l0,-16.23c0.109,-25.791 -6.205,-51.208 -18.37,-73.95c-4.11,-7.59 -8.82,-14.73 -14,-20.13c-3.08,-3.271 -7.966,-4.159 -12,-2.18l0.36,0.19c-1.256,0.559 -2.393,1.353 -3.35,2.34c-3.85,4 -8.86,10.47 -14.35,20.91c-11.576,22.228 -17.582,46.938 -17.5,72l0,269l30.64,0l-3.38,22.11l0,66.13l25.06,0l0,-66.13l-3.35,-22.12l30.2,0l0,-245l8.58,0l0,243.94l24.47,0l-3.51,23.18l0,66.13l25.06,0l0,-66.13l-3.51,-23.21l33,0l-3.53,23.21l0,66.13l25.06,0l0,-66.13l-3.51,-23.21l19.54,0l0,-243.88l9.93,0l0,245.37l8.05,0l0,-0.37l26.62,0l-3.34,22.09l0,66.13l25.06,0l0,-66.13l-3.35,-22.12l27.07,0l0,-268.96Z" style="fill:url(#_Linear3);fill-rule:nonzero;"/><path d="M436.4,585.25l-23.73,0l4.24,-28.81l15.25,0l4.24,28.81Z" style="fill:#535461;fill-rule:nonzero;"/><path d="M415.73,567.88l17.61,0l-1.18,-8.05l-15.25,0l-1.18,8.05Z" style="fill-opacity:0.1;fill-rule:nonzero;"/><path d="M639.75,585.25l-23.72,0l4.23,-28.81l15.26,0l4.23,28.81Z" style="fill:#535461;fill-rule:nonzero;"/><path d="M619.08,567.88l17.62,0l-1.18,-8.05l-15.26,0l-1.18,8.05Z" style="fill-opacity:0.1;fill-rule:nonzero;"/><path d="M513.5,585.25l-23.72,0l4.23,-28.81l15.26,0l4.23,28.81Z" style="fill:#535461;fill-rule:nonzero;"/><path d="M492.83,567.88l17.62,0l-1.18,-8.05l-15.26,0l-1.18,8.05Z" style="fill-opacity:0.1;fill-rule:nonzero;"/><path d="M561.8,585.25l-23.72,0l4.23,-28.81l15.25,0l4.24,28.81Z" style="fill:#535461;fill-rule:nonzero;"/><path d="M541.13,567.88l17.62,0l-1.19,-8.05l-15.25,0l-1.18,8.05Z" style="fill-opacity:0.1;fill-rule:nonzero;"/><rect x="436.4" y="318.35" width="169.46" height="6.78" style="fill:#535461;"/><path d="M632.05,211.27c-1.81,-1.999 -4.384,-3.141 -7.08,-3.141c-2.696,0 -5.27,1.142 -7.08,3.141c-4.93,5.26 -9.39,12.21 -13.28,19.6c-11.538,22.237 -17.506,46.948 -17.39,72l0,260.84l75,0l0,-261.94c0.094,-24.359 -5.585,-48.398 -16.57,-70.14c-5.21,-10.16 -9.95,-16.52 -13.6,-20.36Z" style="fill:#e0e0e0;fill-rule:nonzero;"/><path d="M416.98,211.27c1.81,-1.999 4.384,-3.141 7.08,-3.141c2.696,0 5.27,1.142 7.08,3.141c4.94,5.26 9.39,12.21 13.29,19.6c11.534,22.239 17.502,46.948 17.39,72l0,260.84l-75,0l0,-261.94c-0.094,-24.359 5.585,-48.398 16.57,-70.14c5.2,-10.16 9.94,-16.52 13.59,-20.36Z" style="fill:#e0e0e0;fill-rule:nonzero;"/><path d="M387.25,307.33l17.8,0.09l0,21.94l-17.8,0l0,-22.03Z" style="fill:#535461;fill-rule:nonzero;"/><path d="M444.02,307.33l17.8,0.09l0,21.94l-17.8,0l0,-22.03Z" style="fill:#535461;fill-rule:nonzero;"/><path d="M587.22,307.33l17.79,0.09l0,21.94l-17.79,0l0,-22.03Z" style="fill:#535461;fill-rule:nonzero;"/><path d="M643.99,307.33l17.79,0.09l0,21.94l-17.79,0l0,-22.03Z" style="fill:#535461;fill-rule:nonzero;"/><path d="M444.43,230.53c-3.9,-7.39 -8.35,-14.34 -13.29,-19.6c-2.858,-3.169 -7.516,-4.045 -11.33,-2.13c1.072,0.535 2.04,1.256 2.86,2.13c4.93,5.26 9.39,12.21 13.28,19.6c11.539,22.237 17.507,46.947 17.39,72l0,260.82l8.48,0l0,-260.81c0.114,-25.055 -5.854,-49.768 -17.39,-72.01Z" style="fill-opacity:0.1;fill-rule:nonzero;"/><path d="M611.39,231.25c3.89,-7.39 8.35,-14.34 13.28,-19.6c0.922,-0.996 2.038,-1.793 3.28,-2.34c-3.749,-1.641 -8.155,-0.695 -10.9,2.34c-4.94,5.26 -9.4,12.21 -13.29,19.6c-11.534,22.239 -17.502,46.948 -17.39,72l0,260.86l7.63,0l0,-260.84c-0.12,-25.059 5.849,-49.777 17.39,-72.02Z" style="fill-opacity:0.1;fill-rule:nonzero;"/><path d="M424.86,649.65l-0.65,0c-6.331,0 -11.54,-5.209 -11.54,-11.54l0,-52.86l23.73,0l0,52.86c0,6.331 -5.209,11.54 -11.54,11.54Z" style="fill:url(#_Linear4);fill-rule:nonzero;"/><path d="M501.97,649.65l-0.66,0c-6.327,-0.005 -11.53,-5.213 -11.53,-11.54l0,-52.86l23.72,0l0,52.86c0,6.327 -5.203,11.535 -11.53,11.54Z" style="fill:url(#_Linear5);fill-rule:nonzero;"/><path d="M550.26,649.65l-0.67,0c-6.319,-0.016 -11.51,-5.221 -11.51,-11.54l0,-52.86l23.72,0l0,52.86c0,6.331 -5.209,11.54 -11.54,11.54Z" style="fill:url(#_Linear6);fill-rule:nonzero;"/><path d="M628.22,649.65l-0.63,0c-0.007,0 -0.013,0 -0.02,0c-6.331,0 -11.54,-5.209 -11.54,-11.54c0,0 0,0 0,0l0,-52.86l23.72,0l0,52.86c0,6.327 -5.203,11.535 -11.53,11.54Z" style="fill:url(#_Linear7);fill-rule:nonzero;"/><path d="M533.93,6.75c-2.507,-2.982 -6.209,-4.707 -10.105,-4.707c-3.896,0 -7.598,1.725 -10.105,4.707c-7,7.88 -13.4,18.29 -19,29.37c-16.46,32.84 -24.82,70.12 -24.82,107.92l0,418.61l107,0l0,-420.29c0,-36.73 -8,-73 -23.64,-105.1c-7.35,-15.23 -14.12,-24.7 -19.33,-30.51Z" style="fill:#eee;fill-rule:nonzero;"/><path d="M550.63,64.25c0,-6.071 -4.929,-11 -11,-11l-33.84,0c-6.071,0 -11,4.929 -11,11l0,3.59c0,6.071 4.929,11 11,11l33.84,0c6.071,0 11,-4.929 11,-11l0,-3.59Z" style="fill:#535461;"/><rect x="470.48" y="158.35" width="105.91" height="4.11" style="fill-opacity:0.1;"/><path d="M761.04,311.33c-2.777,-3.647 -6.251,-6.706 -10.22,-9c-5.215,-3.007 -11.129,-4.59 -17.149,-4.59c-18.833,0 -34.33,15.497 -34.33,34.33c0,18.825 15.484,34.318 34.309,34.33c0.73,0 1.46,0 2.17,-0.08c17.977,-1.134 32.159,-16.239 32.159,-34.252c0,-7.461 -2.433,-14.723 -6.929,-20.678l-0.01,-0.06Z" style="fill:url(#_Linear8);fill-rule:nonzero;"/><path d="M766.09,332.01c-0.003,17.027 -13.407,31.304 -30.4,32.38c-0.67,0 -1.36,0.07 -2.05,0.07c-0.006,0 -0.013,0 -0.019,0c-17.807,0 -32.46,-14.653 -32.46,-32.46c0,-17.807 14.653,-32.46 32.46,-32.46c5.705,0 11.31,1.504 16.249,4.36c3.758,2.181 7.043,5.091 9.66,8.56c4.263,5.624 6.568,12.493 6.56,19.55Z" style="fill-opacity:0.2;fill-rule:nonzero;"/><path d="M725.65,311.42c-1.678,0.722 -3.296,1.575 -4.84,2.55c-1.031,0.563 -1.917,1.357 -2.59,2.32c-0.681,0.99 -0.704,2.296 -0.06,3.31c0.79,1.08 2.31,1.24 3.65,1.32c1.407,0.179 2.837,0.036 4.18,-0.42c0.907,-0.449 1.732,-1.047 2.44,-1.77l2.79,-2.53c1,-0.88 2,-2.09 1.61,-3.33c-0.468,-0.899 -1.361,-1.502 -2.37,-1.6c-2.404,-0.468 -4.899,-0.03 -7,1.23" style="fill-opacity:0.1;fill-rule:nonzero;"/><circle cx="714" cy="344.82" r="1.71" style="fill-opacity:0.1;"/><circle cx="748.72" cy="334" r="6.26" style="fill-opacity:0.1;"/><path d="M759.59,312.46c-0.052,4.649 -3.891,8.445 -8.539,8.445c-4.685,0 -8.54,-3.855 -8.54,-8.54c0,-4.26 3.187,-7.901 7.409,-8.465c3.762,2.18 7.05,5.09 9.67,8.56Z" style="fill-opacity:0.1;fill-rule:nonzero;"/><path d="M760.17,350.69c-5.651,8.044 -14.669,13.09 -24.48,13.7c0,-0.45 -0.06,-0.9 -0.06,-1.36c0.008,-8.432 6.948,-15.365 15.38,-15.365c3.298,0 6.511,1.061 9.16,3.025Z" style="fill-opacity:0.1;fill-rule:nonzero;"/><path d="M317.76,496.58c-1.936,-2.56 -4.364,-4.709 -7.14,-6.32c-3.682,-2.16 -7.875,-3.3 -12.145,-3.3c-13.166,0 -24,10.834 -24,24c0,13.166 10.834,24 24,24c0.049,0 0.097,0 0.145,0c0.51,0 1,0 1.52,-0.05c12.53,-0.843 22.388,-11.387 22.388,-23.946c0,-5.185 -1.68,-10.233 -4.788,-14.384l0.02,0Z" style="fill:url(#_Linear9);fill-rule:nonzero;"/><path d="M321.28,511.01c-0.003,11.879 -9.354,21.84 -21.21,22.59l-1.43,0c-12.418,-0.003 -22.634,-10.222 -22.634,-22.64c0,-12.42 10.22,-22.64 22.64,-22.64c3.971,0 7.874,1.045 11.314,3.03c2.626,1.528 4.918,3.569 6.74,6c2.981,3.928 4.59,8.729 4.58,13.66Z" style="fill-opacity:0.2;fill-rule:nonzero;"/><path d="M293.06,496.65c-1.169,0.498 -2.296,1.09 -3.37,1.77c-0.716,0.399 -1.334,0.953 -1.81,1.62c-0.453,0.702 -0.453,1.608 0,2.31c0.671,0.663 1.6,0.999 2.54,0.92c0.983,0.127 1.981,0.028 2.92,-0.29c0.636,-0.314 1.214,-0.733 1.71,-1.24l1.94,-1.76c0.68,-0.62 1.42,-1.46 1.12,-2.32c-0.311,-0.64 -0.941,-1.067 -1.65,-1.12c-1.673,-0.328 -3.41,-0.021 -4.87,0.86" style="fill-opacity:0.1;fill-rule:nonzero;"/><circle cx="284.93" cy="519.94" r="1.19" style="fill-opacity:0.1;"/><circle cx="309.16" cy="512.4" r="4.37" style="fill-opacity:0.1;"/><path d="M316.71,497.37c-0.026,3.274 -2.726,5.953 -6,5.953c-3.291,0 -6,-2.709 -6,-6c0,-3.009 2.264,-5.577 5.25,-5.953c2.63,1.527 4.925,3.568 6.75,6Z" style="fill-opacity:0.1;fill-rule:nonzero;"/><path d="M317.15,524.04c-3.943,5.612 -10.235,9.134 -17.08,9.56l0,-1c0.005,-5.883 4.847,-10.72 10.73,-10.72c2.301,0 4.542,0.74 6.39,2.11l-0.04,0.05Z" style="fill-opacity:0.1;fill-rule:nonzero;"/><path d="M837.69,539.42l21.8,11.6l-17.02,19.04" style="fill:none;fill-rule:nonzero;"/><circle cx="954.9" cy="428.23" r="1.84" style="fill:#fff;"/><defs><linearGradient id="_Linear1" x1="0" y1="0" x2="1" y2="0" gradientUnits="userSpaceOnUse" gradientTransform="matrix(1.6894e-15,-27.59,27.59,1.6894e-15,277.46,697.11)"><stop offset="0" style="stop-color:#808080;stop-opacity:0.17"/><stop offset="0.54" style="stop-color:#808080;stop-opacity:0.08"/><stop offset="1" style="stop-color:#808080;stop-opacity:0.07"/></linearGradient><linearGradient id="_Linear2" x1="0" y1="0" x2="1" y2="0" gradientUnits="userSpaceOnUse" gradientTransform="matrix(1.41018e-15,-23.03,23.03,1.41018e-15,748.15,567.16)"><stop offset="0" style="stop-color:#808080;stop-opacity:0.17"/><stop offset="0.54" style="stop-color:#808080;stop-opacity:0.08"/><stop offset="1" style="stop-color:#808080;stop-opacity:0.07"/></linearGradient><linearGradient id="_Linear3" x1="0" y1="0" x2="1" y2="0" gradientUnits="userSpaceOnUse" gradientTransform="matrix(4.06748e-14,-664.27,664.27,4.06748e-14,524.52,664.27)"><stop offset="0" style="stop-color:#808080;stop-opacity:0.17"/><stop offset="0.54" style="stop-color:#808080;stop-opacity:0.08"/><stop offset="1" style="stop-color:#808080;stop-opacity:0.07"/></linearGradient><linearGradient id="_Linear4" x1="0" y1="0" x2="1" y2="0" gradientUnits="userSpaceOnUse" gradientTransform="matrix(3.94336e-15,64.4,-64.4,3.94336e-15,424.54,585.25)"><stop offset="0" style="stop-color:#e0e0e0;stop-opacity:1"/><stop offset="0.31" style="stop-color:#fccc63;stop-opacity:1"/><stop offset="0.77" style="stop-color:#f55f44;stop-opacity:1"/><stop offset="1" style="stop-color:#f55f44;stop-opacity:1"/></linearGradient><linearGradient id="_Linear5" x1="0" y1="0" x2="1" y2="0" gradientUnits="userSpaceOnUse" gradientTransform="matrix(3.94336e-15,64.4,-64.4,3.94336e-15,501.64,585.25)"><stop offset="0" style="stop-color:#e0e0e0;stop-opacity:1"/><stop offset="0.31" style="stop-color:#fccc63;stop-opacity:1"/><stop offset="0.77" style="stop-color:#f55f44;stop-opacity:1"/><stop offset="1" style="stop-color:#f55f44;stop-opacity:1"/></linearGradient><linearGradient id="_Linear6" x1="0" y1="0" x2="1" y2="0" gradientUnits="userSpaceOnUse" gradientTransform="matrix(3.94336e-15,64.4,-64.4,3.94336e-15,549.94,585.25)"><stop offset="0" style="stop-color:#e0e0e0;stop-opacity:1"/><stop offset="0.31" style="stop-color:#fccc63;stop-opacity:1"/><stop offset="0.77" style="stop-color:#f55f44;stop-opacity:1"/><stop offset="1" style="stop-color:#f55f44;stop-opacity:1"/></linearGradient><linearGradient id="_Linear7" x1="0" y1="0" x2="1" y2="0" gradientUnits="userSpaceOnUse" gradientTransform="matrix(3.94336e-15,64.4,-64.4,3.94336e-15,627.89,585.25)"><stop offset="0" style="stop-color:#e0e0e0;stop-opacity:1"/><stop offset="0.31" style="stop-color:#fccc63;stop-opacity:1"/><stop offset="0.77" style="stop-color:#f55f44;stop-opacity:1"/><stop offset="1" style="stop-color:#f55f44;stop-opacity:1"/></linearGradient><linearGradient id="_Linear8" x1="0" y1="0" x2="1" y2="0" gradientUnits="userSpaceOnUse" gradientTransform="matrix(4.20421e-15,-68.66,68.66,4.20421e-15,733.64,366.34)"><stop offset="0" style="stop-color:#808080;stop-opacity:0.25"/><stop offset="0.54" style="stop-color:#808080;stop-opacity:0.12"/><stop offset="1" style="stop-color:#808080;stop-opacity:0.1"/></linearGradient><linearGradient id="_Linear9" x1="0" y1="0" x2="1" y2="0" gradientUnits="userSpaceOnUse" gradientTransform="matrix(2.93364e-15,-47.91,47.91,2.93364e-15,298.64,534.96)"><stop offset="0" style="stop-color:#808080;stop-opacity:0.25"/><stop offset="0.54" style="stop-color:#808080;stop-opacity:0.12"/><stop offset="1" style="stop-color:#808080;stop-opacity:0.1"/></linearGradient></defs></svg>