<?xml version="1.0" encoding="UTF-8" standalone="no"?><!DOCTYPE svg PUBLIC "-//W3C//DTD SVG 1.1//EN" "http://www.w3.org/Graphics/SVG/1.1/DTD/svg11.dtd"><svg width="100%" height="100%" viewBox="0 0 32 32" version="1.1" xmlns="http://www.w3.org/2000/svg" xmlns:xlink="http://www.w3.org/1999/xlink" xml:space="preserve" xmlns:serif="http://www.serif.com/" style="fill-rule:evenodd;clip-rule:evenodd;stroke-linejoin:round;stroke-miterlimit:1.41421;"><clipPath id="_clip1"><path d="M15.534,8.411c0,0.102 -0.102,0.102 -0.102,0.102l-0.102,0c-0.102,0 -0.102,-0.102 -0.204,-0.204c0,0 -0.102,-0.102 -0.102,-0.204c0,-0.102 0,-0.102 0.102,-0.102l0.204,0.102c0.102,0.102 0.204,0.204 0.204,0.306Zm-1.836,-1.02c0,-0.51 -0.204,-0.816 -0.51,-0.816c0,0 0,0.102 -0.102,0.102l0,0.204l0.306,0c0,0.204 0.102,0.306 0.102,0.51l0.204,0Zm3.57,-0.51c0.204,0 0.306,0.204 0.408,0.51l0.204,0c-0.102,-0.102 -0.102,-0.204 -0.102,-0.306c0,-0.102 0,-0.204 -0.102,-0.306c-0.102,-0.102 -0.204,-0.204 -0.306,-0.204c0,0 -0.102,0.102 -0.204,0.102c0,0.102 0.102,0.102 0.102,0.204Zm-3.06,1.632c-0.102,0 -0.102,0 -0.102,-0.102c0,-0.102 0,-0.204 0.102,-0.306c0.111,0.005 0.22,-0.031 0.306,-0.102c0.102,0 0.102,0.102 0.102,0.102c0,0.102 -0.102,0.204 -0.306,0.408l-0.102,0Zm-1.122,-0.102c-0.408,-0.204 -0.51,-0.51 -0.51,-1.02c0,-0.306 0,-0.51 0.204,-0.714c0.102,-0.204 0.306,-0.306 0.51,-0.306c0.204,0 0.306,0.102 0.51,0.306c0.102,0.306 0.204,0.612 0.204,0.918l0,0.204l0.102,0l0,-0.102c0.102,0 0.102,-0.204 0.102,-0.612c0,-0.306 0,-0.612 -0.204,-0.918c-0.204,-0.306 -0.408,-0.51 -0.816,-0.51c-0.321,0.004 -0.607,0.208 -0.714,0.51c-0.204,0.408 -0.245,0.714 -0.245,1.224c0,0.408 0.143,0.816 0.551,1.224c0.102,-0.102 0.204,-0.102 0.306,-0.204Zm12.748,14.38c0.102,0 0.102,-0.041 0.102,-0.133c0,-0.224 -0.102,-0.489 -0.408,-0.785c-0.306,-0.306 -0.816,-0.5 -1.428,-0.581c-0.102,-0.01 -0.204,-0.01 -0.204,-0.01c-0.102,-0.02 -0.102,-0.02 -0.204,-0.02c-0.137,-0.012 -0.273,-0.029 -0.408,-0.051c0.268,-0.813 0.406,-1.663 0.408,-2.519c0,-1.02 -0.204,-1.734 -0.612,-2.346c-0.408,-0.612 -0.816,-0.918 -1.326,-1.02c-0.102,0.102 -0.102,0.102 -0.102,0.204c0.51,0.204 1.02,0.612 1.326,1.224c0.306,0.714 0.408,1.326 0.408,2.04c0,0.571 -0.102,1.418 -0.51,2.499c-0.408,0.163 -0.816,0.54 -1.122,1.132c0,0.092 0,0.143 0.102,0.143c0,0 0.102,-0.092 0.204,-0.265c0.204,-0.173 0.306,-0.347 0.51,-0.52c0.306,-0.173 0.51,-0.265 0.816,-0.265c0.51,0 1.02,0.071 1.326,0.214c0.408,0.133 0.612,0.275 0.714,0.439c0.102,0.153 0.204,0.296 0.306,0.428c0,0.132 0.102,0.194 0.102,0.194l0,-0.002Zm-9.382,-14.788c-0.102,-0.102 -0.102,-0.306 -0.102,-0.51c0,-0.408 0,-0.612 0.204,-0.918c0.204,-0.204 0.408,-0.306 0.612,-0.306c0.306,0 0.51,0.204 0.714,0.408c0.102,0.306 0.204,0.51 0.204,0.816c0,0.51 -0.204,0.816 -0.612,0.918c0,0 0.102,0.102 0.204,0.102c0.204,0 0.306,0.102 0.51,0.204c0.102,-0.612 0.204,-1.02 0.204,-1.53c0,-0.612 -0.102,-1.02 -0.306,-1.326c-0.306,-0.306 -0.612,-0.408 -1.02,-0.408c-0.306,0 -0.612,0.102 -0.918,0.306c-0.204,0.306 -0.306,0.51 -0.306,0.816c0,0.51 0.102,0.918 0.306,1.326c0.102,0 0.204,0.102 0.306,0.102Zm1.224,1.632c-1.326,0.918 -2.346,1.326 -3.162,1.326c-0.714,0 -1.428,-0.306 -2.04,-0.816c0.102,0.204 0.204,0.408 0.306,0.51l0.612,0.612c0.408,0.408 0.918,0.612 1.428,0.612c0.714,0 1.53,-0.408 2.55,-1.122l0.918,-0.612c0.204,-0.204 0.408,-0.408 0.408,-0.714c0,-0.102 0,-0.204 -0.102,-0.204c-0.102,-0.204 -0.612,-0.51 -1.632,-0.816c-0.918,-0.408 -1.632,-0.612 -2.04,-0.612c-0.306,0 -0.816,0.204 -1.53,0.612c-0.612,0.408 -1.02,0.816 -1.02,1.224c0,0 0.102,0.102 0.204,0.306c0.612,0.51 1.224,0.816 1.836,0.816c0.816,0 1.836,-0.408 3.162,-1.428l0,0.204c0.102,0 0.102,0.102 0.102,0.102Zm2.345,20.601c0.408,0.767 1.122,1.152 1.938,1.152c0.204,0 0.408,-0.031 0.612,-0.092c0.204,-0.041 0.408,-0.112 0.51,-0.194c0.102,-0.071 0.204,-0.143 0.306,-0.224c0.204,-0.071 0.204,-0.122 0.306,-0.173l1.734,-1.499c0.408,-0.325 0.816,-0.61 1.326,-0.857c0.408,-0.245 0.816,-0.408 1.02,-0.5c0.306,-0.082 0.51,-0.204 0.714,-0.367c0.102,-0.153 0.204,-0.347 0.204,-0.592c0,-0.296 -0.204,-0.52 -0.408,-0.683c-0.204,-0.163 -0.408,-0.275 -0.612,-0.347c-0.204,-0.072 -0.408,-0.235 -0.714,-0.51c-0.251,-0.328 -0.426,-0.708 -0.51,-1.112l-0.102,-0.591c-0.102,-0.275 -0.102,-0.479 -0.204,-0.592c0,-0.031 0,-0.041 -0.102,-0.041c-0.102,0 -0.306,0.092 -0.408,0.265c-0.204,0.173 -0.408,0.367 -0.612,0.571c-0.102,0.204 -0.408,0.387 -0.612,0.561c-0.306,0.173 -0.612,0.265 -0.816,0.265c-0.816,0 -1.224,-0.224 -1.53,-0.663c-0.204,-0.326 -0.306,-0.704 -0.408,-1.132c-0.204,-0.173 -0.306,-0.265 -0.51,-0.265c-0.51,0 -0.714,0.53 -0.714,1.601l0,3.172c0,0.092 -0.102,0.296 -0.102,0.612c-0.102,0.316 -0.102,0.675 -0.102,1.081l-0.204,1.132l0,0.022Zm-14.788,-0.543c0.948,0.139 2.04,0.435 3.274,0.888c1.234,0.449 1.989,0.683 2.264,0.683c0.714,0 1.306,-0.316 1.795,-0.927c0.102,-0.198 0.102,-0.43 0.102,-0.698c0,-0.964 -0.581,-2.183 -1.744,-3.661l-0.694,-0.928c-0.143,-0.194 -0.316,-0.49 -0.54,-0.887c-0.168,-0.317 -0.355,-0.624 -0.561,-0.918c-0.133,-0.235 -0.347,-0.469 -0.622,-0.704c-0.259,-0.229 -0.571,-0.39 -0.908,-0.469c-0.428,0.082 -0.724,0.224 -0.867,0.418c-0.143,0.194 -0.224,0.408 -0.245,0.632c-0.031,0.214 -0.092,0.357 -0.194,0.428c-0.102,0.061 -0.275,0.112 -0.51,0.163c-0.051,0 -0.143,0 -0.275,0.01l-0.275,0c-0.541,0 -0.908,0.061 -1.101,0.163c-0.246,0.271 -0.384,0.623 -0.388,0.989c0,0.163 0.041,0.439 0.122,0.826c0.082,0.377 0.122,0.683 0.122,0.897c0,0.418 -0.122,0.836 -0.377,1.254c-0.255,0.439 -0.388,0.765 -0.388,0.997c0.102,0.396 0.775,0.674 2.009,0.837l0.001,0.007Zm3.396,-9.273c0,-0.704 0.184,-1.479 0.561,-2.397c0.367,-0.918 0.734,-1.53 1.091,-1.938c-0.02,-0.102 -0.071,-0.102 -0.153,-0.102l-0.102,-0.102c-0.296,0.306 -0.653,1.02 -1.081,2.04c-0.428,0.918 -0.653,1.764 -0.653,2.387c0,0.459 0.112,0.857 0.316,1.203c0.224,0.337 0.765,0.826 1.622,1.448l1.081,0.704c1.152,1 1.764,1.693 1.764,2.101c0,0.214 -0.102,0.428 -0.408,0.663c-0.204,0.245 -0.479,0.367 -0.714,0.367c-0.02,0 -0.031,0.02 -0.031,0.071c0,0.01 0.102,0.214 0.316,0.612c0.428,0.581 1.346,0.867 2.57,0.867c2.244,0 3.977,-0.918 5.303,-2.754c0,-0.51 0,-0.826 -0.102,-0.959l0,-0.377c0,-0.663 0.102,-1.163 0.306,-1.489c0.204,-0.326 0.408,-0.479 0.714,-0.479c0.204,0 0.408,0.071 0.612,0.224c0.102,-0.785 0.102,-1.469 0.102,-2.081c0,-0.928 0,-1.693 -0.204,-2.407c-0.092,-0.533 -0.264,-1.049 -0.51,-1.53l-0.612,-0.918c-0.204,-0.306 -0.306,-0.612 -0.51,-0.918c-0.102,-0.408 -0.204,-0.714 -0.204,-1.224c-0.306,-0.51 -0.51,-1.02 -0.816,-1.53c-0.204,-0.51 -0.408,-1.02 -0.612,-1.428l-0.918,0.714c-1.02,0.714 -1.836,1.02 -2.55,1.02c-0.612,0 -1.122,-0.102 -1.428,-0.51l-0.612,-0.51c0,0.306 -0.102,0.714 -0.306,1.122l-0.643,1.224c-0.286,0.714 -0.438,1.122 -0.469,1.428c-0.041,0.204 -0.071,0.408 -0.092,0.408l-0.765,1.53c-0.826,1.53 -1.244,2.947 -1.244,4.12c0,0.235 0.02,0.479 0.061,0.724c-0.459,-0.316 -0.683,-0.755 -0.683,-1.326l0.003,0.002Zm7.303,9.648c-1.326,0 -2.346,0.18 -3.06,0.535l0,-0.031c-0.51,0.612 -1.081,0.928 -1.877,0.928c-0.5,0 -1.285,-0.194 -2.346,-0.581c-1.071,-0.367 -2.019,-0.649 -2.845,-0.834c-0.185,-0.043 -0.373,-0.078 -0.561,-0.105c-0.263,-0.042 -0.524,-0.088 -0.785,-0.14c-0.246,-0.054 -0.487,-0.124 -0.724,-0.209c-0.222,-0.064 -0.43,-0.17 -0.612,-0.313c-0.141,-0.129 -0.21,-0.273 -0.21,-0.436c0,-0.163 0.035,-0.337 0.104,-0.523c0.065,-0.112 0.137,-0.224 0.208,-0.326c0.071,-0.112 0.133,-0.214 0.173,-0.316c0.061,-0.092 0.102,-0.184 0.143,-0.286c0.041,-0.092 0.082,-0.184 0.102,-0.296c0.02,-0.102 0.041,-0.204 0.041,-0.306c0,-0.102 -0.041,-0.408 -0.122,-0.948c-0.082,-0.53 -0.122,-0.867 -0.122,-1.01c0,-0.449 0.102,-0.806 0.326,-1.061c0.224,-0.255 0.439,-0.388 0.663,-0.388l1.173,0c0.092,0 0.235,-0.051 0.449,-0.173c0.071,-0.163 0.133,-0.296 0.173,-0.418c0.051,-0.122 0.071,-0.214 0.092,-0.255c0.02,-0.061 0.041,-0.122 0.061,-0.173c0.047,-0.083 0.101,-0.162 0.163,-0.235c-0.086,-0.114 -0.129,-0.255 -0.122,-0.398c0,-0.112 0,-0.214 0.02,-0.275c0,-0.367 0.173,-0.887 0.54,-1.571l0.357,-0.643c0.296,-0.551 0.52,-0.959 0.683,-1.367c0.173,-0.408 0.357,-1.02 0.561,-1.836c0.163,-0.714 0.551,-1.428 1.163,-2.142l0.765,-0.918c0.53,-0.612 0.877,-1.122 1.071,-1.53c0.194,-0.408 0.296,-0.918 0.296,-1.326c0,-0.204 -0.051,-0.816 -0.163,-1.836c-0.099,-0.983 -0.15,-1.97 -0.153,-2.958c0,-0.714 0.061,-1.224 0.194,-1.734c0.133,-0.51 0.367,-1.02 0.714,-1.428c0.306,-0.408 0.714,-0.816 1.326,-1.02c0.612,-0.204 1.326,-0.306 2.142,-0.306c0.306,0 0.612,0 0.918,0.102c0.306,0 0.714,0.102 1.224,0.306c0.408,0.204 0.816,0.408 1.122,0.714c0.408,0.306 0.714,0.816 1.02,1.326c0.204,0.612 0.408,1.224 0.51,2.04c0.102,0.51 0.102,1.02 0.204,1.734c0,0.612 0.102,1.02 0.102,1.326c0.102,0.306 0.102,0.714 0.204,1.224c0.102,0.408 0.204,0.816 0.408,1.122c0.204,0.408 0.408,0.816 0.714,1.224c0.306,0.51 0.714,1.02 1.122,1.632c0.918,1.02 1.632,2.142 2.04,3.263c0.51,1.02 0.816,2.346 0.816,3.763c0.001,0.695 -0.102,1.386 -0.306,2.05c0.204,0 0.306,0.082 0.408,0.224c0.102,0.142 0.204,0.449 0.306,0.928l0.102,0.755c0.102,0.224 0.204,0.439 0.51,0.622c0.204,0.184 0.408,0.337 0.714,0.459c0.204,0.102 0.51,0.245 0.714,0.428c0.204,0.204 0.306,0.418 0.306,0.642c0,0.347 -0.102,0.602 -0.306,0.785c-0.195,0.207 -0.441,0.359 -0.714,0.439c-0.204,0.102 -0.612,0.306 -1.224,0.594c-0.51,0.302 -1.02,0.668 -1.53,1.101l-1.02,0.868c-0.337,0.331 -0.714,0.619 -1.122,0.857c-0.306,0.184 -0.714,0.275 -1.122,0.275l-0.714,-0.082c-0.816,-0.214 -1.326,-0.622 -1.632,-1.244c-1.632,-0.198 -2.958,-0.296 -3.774,-0.296l-0.001,0.007Z" clip-rule="nonzero"/></clipPath><g clip-path="url(#_clip1)"><rect x="0" y="0" width="32" height="32" style="fill:#fff;"/></g></svg>