<?xml version="1.0" encoding="UTF-8" standalone="no"?><!DOCTYPE svg PUBLIC "-//W3C//DTD SVG 1.1//EN" "http://www.w3.org/Graphics/SVG/1.1/DTD/svg11.dtd"><svg width="100%" height="100%" viewBox="0 0 20 20" version="1.1" xmlns="http://www.w3.org/2000/svg" xmlns:xlink="http://www.w3.org/1999/xlink" xml:space="preserve" xmlns:serif="http://www.serif.com/" style="fill-rule:evenodd;clip-rule:evenodd;stroke-linejoin:round;stroke-miterlimit:1.41421;"><clipPath id="_clip1"><path d="M9.146,10.434c0.005,2 0.01,5.395 0.016,8.035c3.614,0.489 7.228,0.992 10.836,1.531c0,-3.151 0.004,-6.289 0,-9.287c-3.617,0 -7.233,-0.279 -10.852,-0.279m-9.146,0.001l0,6.787c2.726,0.367 5.452,0.72 8.172,1.12c0.005,-2.625 -0.002,-5.251 -0.002,-7.877c-2.723,0.005 -5.446,-0.039 -8.17,-0.03m0,-7.592l0,6.768c2.726,0.007 5.452,-0.034 8.177,-0.031c-0.002,-2.62 -0.002,-5.236 -0.005,-7.856c-2.727,0.34 -5.455,0.702 -8.172,1.12m20,6.628c-3.612,0.014 -7.224,0.069 -10.838,0.08c-0.002,-2.663 -0.002,-5.322 0,-7.983c3.608,-0.548 7.22,-1.071 10.836,-1.569c0.002,3.158 0,6.314 0.002,9.472"/></clipPath><g clip-path="url(#_clip1)"><rect x="0" y="0" width="20" height="20" style="fill:#fff;"/></g></svg>